<?xml version="1.0" encoding="utf-8"?>
<!-- Generator: Adobe Illustrator 25.2.1, SVG Export Plug-In . SVG Version: 6.00 Build 0)  -->
<svg version="1.1" id="Layer_1" xmlns="http://www.w3.org/2000/svg" xmlns:xlink="http://www.w3.org/1999/xlink" x="0px" y="0px"
	 viewBox="0 0 500 500" style="enable-background:new 0 0 500 500;" xml:space="preserve">
<style type="text/css">
	.st0{fill:#F4F6F5;}
	.st1{fill:#231F20;}
</style>
<rect y="0" class="st0" width="500" height="500"/>
<path class="st1" d="M390.6,331.3L390.6,331.3H437v43.9h-46.4V331.3z M390.6,279.9L390.6,279.9H437v43.9h-46.4V279.9z M390.6,226.9
	L390.6,226.9H437v43.9h-46.4V226.9z M390.6,123.2L390.6,123.2H437v43.9h-46.4V123.2z M335.9,383.5L335.9,383.5h46.4v43.9h-46.4
	V383.5z M335.9,331.3L335.9,331.3h46.4v43.9h-46.4V331.3z M335.9,279.9L335.9,279.9h46.4v43.9h-46.4V279.9z M335.9,226.9
	L335.9,226.9h46.4v43.9h-46.4V226.9z M335.9,123.2L335.9,123.2h46.4v43.9h-46.4V123.2z M335.9,71.8L335.9,71.8h46.4v43.9h-46.4V71.8
	z M282,383.5L282,383.5h46.4v43.9H282V383.5z M282,226.9L282,226.9h46.4v43.9H282V226.9z M282,71.8L282,71.8h46.4v43.9H282V71.8z
	 M226.4,383.5L226.4,383.5h46.4v43.9h-46.4V383.5z M226.4,71.8L226.4,71.8h46.4v43.9h-46.4V71.8z M171.7,383.5L171.7,383.5h46.4
	v43.9h-46.4L171.7,383.5L171.7,383.5z M171.7,71.8L171.7,71.8h46.4v43.9h-46.4L171.7,71.8L171.7,71.8z M117,383.5L117,383.5h46.4
	v43.9H117V383.5z M117,331.3L117,331.3h46.4v43.9H117V331.3z M117,279.9L117,279.9h46.4v43.9H117V279.9z M117,226.9L117,226.9h46.4
	v43.9H117V226.9z M117,175.5L117,175.5h46.4v43.9H117V175.5z M117,123.2L117,123.2h46.4v43.9H117V123.2z M117,71.8L117,71.8h46.4
	v43.9H117V71.8z M62.3,331.3L62.3,331.3h46.4v43.9H62.3V331.3z M62.3,279.9L62.3,279.9h46.4v43.9H62.3V279.9z M62.3,226.9
	L62.3,226.9h46.4v43.9H62.3V226.9z M62.3,175.5L62.3,175.5h46.4v43.9H62.3V175.5z M62.3,123.2h46.4v43.9H62.3V123.2z"/>
</svg>
